# xmcd
#
# Track frame offsets: 
#        150
#        19791
#        41046
#        57397
#        75885
#        94719
#        109463
#        119860
#        141335
#        154625
#
# Disc length: 2249 seconds
#
# Revision: 0
# Processed by: cddbd v1.5.2PL0 Copyright (c) Steve Scherf et al.
# Submitted via: ExactAudioCopy v1.3
#
DISCID=8508c70a
DTITLE=Laura Lalla Domeneghini - Lallabies
DYEAR=2018
DGENRE=Vocal
TTITLE0=Dream A Lullaby
TTITLE1=Beside
TTITLE2=Faces
TTITLE3=I Wish I Were A Carpenter
TTITLE4=I Don't Know
TTITLE5=The Fall
TTITLE6=Lallaby
TTITLE7=Names
TTITLE8=Typewriter
TTITLE9=The Bet
EXTD=
EXTT0=
EXTT1=
EXTT2=
EXTT3=
EXTT4=
EXTT5=
EXTT6=
EXTT7=
EXTT8=
EXTT9=
PLAYORDER=
